Coordinates
version=1
nRows=8
nColumns=36
inDegrees=yes

Units are S.I. units (second, meters, Newtons, ...)
If the header above contains a line with 'inDegrees', this indicates whether rotational values are in degrees (yes) or radians (no).

endheader
time	pelvis_tilt	pelvis_list	pelvis_rotation	pelvis_tx	pelvis_ty	pelvis_tz	hip_flexion_r	hip_adduction_r	hip_rotation_r	knee_angle_r	knee_angle_r_beta	ankle_angle_r	subtalar_angle_r	mtp_angle_r	hip_flexion_l	hip_adduction_l	hip_rotation_l	knee_angle_l	knee_angle_l_beta	ankle_angle_l	subtalar_angle_l	mtp_angle_l	lumbar_extension	lumbar_bending	lumbar_rotation	arm_flex_r	arm_add_r	arm_rot_r	elbow_flex_r	pro_sup_r	arm_flex_l	arm_add_l	arm_rot_l	elbow_flex_l	pro_sup_l
      0.00000000	     -0.35896096	     -3.54377480	     11.31390647	     -0.05328438	      0.93055106	     -0.18817311	     25.04355045	      1.91256609	     -0.52492871	      7.43128786	      0.12970044	     -7.81626482	     -6.82840340	     -6.59709196	    -15.33009142	     -6.17751850	      3.66453104	     17.55529486	      0.30639770	     16.59960458	     12.14125056	     -6.59709196	     -3.77149984	      0.44250671	    -15.07840272	     -8.90663664	     -7.78535780	     12.18580263	     17.72159940	    106.76166496	     10.77402348	    -12.04554101	     22.14426728	     37.88322725	    110.72170166
      0.01000000	     -0.01048332	     -4.05197473	     11.34982319	     -0.03906189	      0.93127273	     -0.18660435	     24.65453463	      2.79259481	     -0.46379805	      8.77893128	      0.15322126	     -7.85896339	     -7.24813025	     -6.60571198	    -15.11718302	     -7.03713632	      3.37666188	     19.78869720	      0.34537792	     14.80713340	     11.53123365	     -6.60571198	     -3.95293519	      1.15390660	    -15.11623861	     -8.95757720	     -7.94681972	     12.07417498	     17.39284683	    106.81207502	     10.56007206	    -11.79388548	     22.07507720	     37.82316474	    110.82107801
      0.02000000	      0.06865995	     -4.57387851	     11.29893862	     -0.02479848	      0.93167311	     -0.18480880	     24.61438577	      3.69993645	     -0.19357724	     10.23125091	      0.17856901	     -8.09806029	     -8.17345841	     -6.62613079	    -14.58215886	     -7.81796368	      3.28875958	     22.03288485	      0.38454638	     12.49704539	     10.45047026	     -6.62613079	     -3.75381377	      1.77905982	    -15.16696881	     -9.00040156	     -8.08083434	     11.95606131	     16.93295848	    106.94021567	     10.19634656	    -11.57628732	     21.94376350	     37.64217893	    111.00824829
      0.03000000	      0.36168684	     -5.10285195	     11.31659704	     -0.01060097	      0.93240499	     -0.18316218	     24.29230622	      4.64467250	      0.03394642	     11.64307525	      0.20321000	     -7.99018010	     -9.07556139	     -6.64123905	    -14.08682213	     -8.70062360	      3.04345904	     24.51958182	      0.42794743	     10.19507549	      9.64456113	     -6.64123905	     -3.83391008	      2.49452102	    -15.16875900	     -9.02296787	     -8.27345653	     11.92252529	     16.59337008	    107.01730344	      9.94971196	    -11.32111734	     21.94916782	     37.54427735	    111.12296722
      0.04000000	      0.75809041	     -5.58861764	     11.31971764	      0.00346405	      0.93340943	     -0.18137402	     23.81546234	      5.59569672	      0.25932499	     13.00845574	      0.22704038	     -7.57464953	     -9.89511279	     -6.64980913	    -13.47759980	     -9.59160360	      2.77148490	     27.32466422	      0.47690536	      7.81303043	      9.06569844	     -6.64980913	     -4.09391255	      3.14638361	    -15.06767478	     -9.00915123	     -8.41124393	     11.91311689	     16.34083913	    107.05054570	      9.76691025	    -11.11795130	     21.98015875	     37.46114100	    111.17647440
      0.05000000	      0.82428288	     -6.04462365	     11.19137745	      0.01744991	      0.93409282	     -0.17938013	     23.70637094	      6.53832901	      0.80113988	     14.45979565	      0.25237104	     -7.18656329	    -11.26183668	     -6.67765917	    -12.36116923	    -10.28729345	      2.80333492	     30.27806446	      0.52845192	      4.44519786	      7.54282568	     -6.67765917	     -3.90968119	      3.67991019	    -14.97118328	     -8.94579528	     -8.56409913	     12.00504225	     16.04718751	    107.16921283	      9.44302947	    -10.99402665	     22.06828804	     37.25047888	    111.31496765
      0.06000000	      1.10690962	     -6.55351394	     11.10041105	      0.03132674	      0.93511787	     -0.17738842	     23.24417051	      7.57202834	      1.13552382	     15.68438175	      0.27374410	     -6.39463804	    -12.21576624	     -6.70066604	    -11.22319963	    -11.17498584	      2.63853644	     33.52067750	      0.58504619	      1.15119129	      6.63228803	     -6.70066604	     -4.01317843	      4.30988338	    -14.81084746	     -8.84255145	     -8.73009781	     12.09189018	     15.91175823	    107.24445913	      9.18434439	    -10.88708093	     22.19668481	     37.11159131	    111.40396100
      0.07000000	      1.44137116	     -7.10130680	     11.01168960	      0.04502563	      0.93617172	     -0.17538124	     22.60574116	      8.65520281	      1.35336019	     16.64150375	      0.29044903	     -5.37917701	    -13.00952925	     -6.71214092	     -9.94306886	    -12.14763425	      2.48178321	     36.93656507	      0.64466467	     -2.06881814	      6.06767493	     -6.71214092	     -4.19232510	      4.98843154	    -14.60600833	     -8.68284551	     -8.88144181	     12.12777290	     15.88086886	    107.27609029	      8.94244416	    -10.79760670	     22.33407656	     37.00498202	    111.44644041
